<svg width="1279" height="595" viewBox="0 0 1279 595" fill="none" xmlns="http://www.w3.org/2000/svg">
<path d="M16.8184 266.357C13.2376 266.357 10.0866 266.107 7.36523 265.605C4.64388 265.104 2.31641 264.424 0.382812 263.564V247.988C2.67448 248.704 5.14518 249.242 7.79492 249.6C10.4447 250.029 13.3092 250.244 16.3887 250.244C20.3991 250.244 24.0872 249.456 27.4531 247.881C30.819 246.305 33.5046 243.62 35.5098 239.824C37.515 236.029 38.5176 230.801 38.5176 224.141V67.9492H56.8867V222.744C56.8867 232.555 55.2396 240.684 51.9453 247.129C48.7227 253.574 44.1035 258.372 38.0879 261.523C32.1439 264.746 25.054 266.357 16.8184 266.357ZM199.698 107.266V225H185.088L182.51 208.457H181.543C179.108 212.539 175.957 215.977 172.09 218.77C168.223 221.562 163.855 223.639 158.985 225C154.187 226.432 149.066 227.148 143.623 227.148C134.314 227.148 126.508 225.645 120.205 222.637C113.903 219.629 109.141 214.974 105.918 208.672C102.767 202.37 101.192 194.277 101.192 184.395V107.266H119.239V183.105C119.239 192.917 121.459 200.257 125.899 205.127C130.339 209.925 137.107 212.324 146.202 212.324C154.939 212.324 161.885 210.677 167.041 207.383C172.269 204.089 176.029 199.255 178.321 192.881C180.612 186.436 181.758 178.558 181.758 169.248V107.266H199.698ZM299.755 105.117C313.72 105.117 324.283 108.555 331.444 115.43C338.606 122.233 342.186 133.19 342.186 148.301V225H324.569V149.482C324.569 139.671 322.313 132.331 317.802 127.461C313.361 122.591 306.522 120.156 297.284 120.156C284.25 120.156 275.083 123.844 269.784 131.221C264.485 138.597 261.835 149.303 261.835 163.34V225H244.003V107.266H258.397L261.083 124.238H262.05C264.556 120.085 267.743 116.611 271.61 113.818C275.477 110.954 279.81 108.805 284.608 107.373C289.406 105.869 294.455 105.117 299.755 105.117ZM418.396 277.852C402.927 277.852 391.003 274.951 382.624 269.15C374.245 263.421 370.056 255.365 370.056 244.98C370.056 237.604 372.383 231.302 377.038 226.074C381.765 220.846 388.282 217.373 396.589 215.654C393.51 214.222 390.86 212.074 388.64 209.209C386.491 206.344 385.417 203.05 385.417 199.326C385.417 195.029 386.599 191.27 388.962 188.047C391.397 184.753 395.085 181.602 400.027 178.594C393.868 176.087 388.855 171.862 384.987 165.918C381.192 159.902 379.294 152.92 379.294 144.971C379.294 136.52 381.049 129.323 384.558 123.379C388.067 117.363 393.152 112.78 399.812 109.629C406.472 106.478 414.529 104.902 423.982 104.902C426.058 104.902 428.135 105.01 430.212 105.225C432.361 105.368 434.402 105.618 436.335 105.977C438.269 106.263 439.952 106.621 441.384 107.051H481.775V118.545L460.075 121.23C462.224 124.023 464.014 127.389 465.446 131.328C466.879 135.267 467.595 139.635 467.595 144.434C467.595 156.178 463.62 165.524 455.671 172.471C447.722 179.346 436.801 182.783 422.907 182.783C419.613 182.783 416.247 182.497 412.81 181.924C409.301 183.857 406.615 186.006 404.753 188.369C402.963 190.732 402.068 193.454 402.068 196.533C402.068 198.825 402.748 200.651 404.109 202.012C405.541 203.372 407.582 204.375 410.232 205.02C412.881 205.592 416.068 205.879 419.792 205.879H440.525C453.344 205.879 463.155 208.564 469.958 213.936C476.833 219.307 480.271 227.148 480.271 237.461C480.271 250.495 474.971 260.485 464.372 267.432C453.773 274.378 438.448 277.852 418.396 277.852ZM418.933 263.887C428.672 263.887 436.729 262.884 443.103 260.879C449.548 258.945 454.346 256.117 457.497 252.393C460.72 248.74 462.331 244.372 462.331 239.287C462.331 234.561 461.257 230.98 459.109 228.545C456.96 226.182 453.809 224.606 449.655 223.818C445.502 222.959 440.417 222.529 434.402 222.529H413.991C408.692 222.529 404.073 223.353 400.134 225C396.195 226.647 393.152 229.082 391.003 232.305C388.926 235.527 387.888 239.538 387.888 244.336C387.888 250.71 390.573 255.544 395.945 258.838C401.316 262.204 408.978 263.887 418.933 263.887ZM423.552 169.785C432.074 169.785 438.484 167.637 442.78 163.34C447.077 159.043 449.226 152.777 449.226 144.541C449.226 135.732 447.042 129.144 442.673 124.775C438.305 120.335 431.859 118.115 423.337 118.115C415.173 118.115 408.871 120.407 404.431 124.99C400.062 129.502 397.878 136.126 397.878 144.863C397.878 152.884 400.098 159.043 404.538 163.34C408.978 167.637 415.316 169.785 423.552 169.785ZM529.517 225H511.578V57.8516H529.517V225ZM619.154 105.117C629.18 105.117 637.774 107.337 644.936 111.777C652.097 116.217 657.576 122.448 661.371 130.469C665.167 138.418 667.064 147.728 667.064 158.398V169.463H585.746C585.961 183.285 589.398 193.812 596.059 201.045C602.719 208.278 612.1 211.895 624.203 211.895C631.651 211.895 638.24 211.214 643.969 209.854C649.698 208.493 655.642 206.488 661.801 203.838V219.521C655.857 222.171 649.949 224.105 644.076 225.322C638.275 226.54 631.4 227.148 623.451 227.148C612.136 227.148 602.253 224.857 593.803 220.273C585.424 215.618 578.907 208.815 574.252 199.863C569.597 190.911 567.27 179.954 567.27 166.992C567.27 154.316 569.382 143.359 573.607 134.121C577.904 124.811 583.92 117.65 591.654 112.637C599.46 107.624 608.627 105.117 619.154 105.117ZM618.939 119.727C609.415 119.727 601.824 122.842 596.166 129.072C590.508 135.303 587.143 144.004 586.068 155.176H648.373C648.301 148.158 647.191 141.999 645.043 136.699C642.966 131.328 639.779 127.174 635.482 124.238C631.186 121.23 625.671 119.727 618.939 119.727ZM39.4844 347.949H83.957C103.579 347.949 118.332 350.885 128.215 356.758C138.098 362.63 143.039 372.62 143.039 386.729C143.039 392.816 141.857 398.294 139.494 403.164C137.202 407.962 133.837 411.937 129.396 415.088C124.956 418.239 119.478 420.423 112.961 421.641V422.715C119.836 423.789 125.923 425.758 131.223 428.623C136.522 431.488 140.676 435.498 143.684 440.654C146.691 445.811 148.195 452.363 148.195 460.312C148.195 469.98 145.939 478.145 141.428 484.805C136.988 491.465 130.686 496.514 122.521 499.951C114.357 503.317 104.689 505 93.5176 505H39.4844V347.949ZM57.7461 415.303H87.8242C101.503 415.303 110.956 413.047 116.184 408.535C121.483 404.023 124.133 397.435 124.133 388.77C124.133 379.818 120.982 373.372 114.68 369.434C108.449 365.495 98.4948 363.525 84.8164 363.525H57.7461V415.303ZM57.7461 430.664V489.424H90.4023C104.367 489.424 114.25 486.702 120.051 481.26C125.852 475.745 128.752 468.333 128.752 459.023C128.752 453.079 127.427 447.995 124.777 443.77C122.199 439.544 117.974 436.322 112.102 434.102C106.301 431.81 98.5306 430.664 88.791 430.664H57.7461ZM282.842 387.266V505H268.233L265.655 488.457H264.688C262.253 492.539 259.102 495.977 255.235 498.77C251.368 501.562 246.999 503.639 242.129 505C237.331 506.432 232.211 507.148 226.768 507.148C217.458 507.148 209.652 505.645 203.35 502.637C197.048 499.629 192.286 494.974 189.063 488.672C185.912 482.37 184.336 474.277 184.336 464.395V387.266H202.383V463.105C202.383 472.917 204.603 480.257 209.043 485.127C213.483 489.925 220.251 492.324 229.346 492.324C238.083 492.324 245.03 490.677 250.186 487.383C255.414 484.089 259.174 479.255 261.465 472.881C263.757 466.436 264.903 458.558 264.903 449.248V387.266H282.842ZM344.979 337.852V379.639C344.979 384.437 344.836 389.092 344.55 393.604C344.335 398.115 344.156 401.624 344.013 404.131H344.979C348.202 398.831 352.857 394.355 358.944 390.703C365.031 387.051 372.802 385.225 382.255 385.225C397.007 385.225 408.752 390.345 417.489 400.586C426.298 410.755 430.702 425.902 430.702 446.025C430.702 459.274 428.697 470.446 424.686 479.541C420.676 488.636 415.018 495.511 407.714 500.166C400.409 504.821 391.779 507.148 381.825 507.148C372.515 507.148 364.852 505.43 358.837 501.992C352.893 498.483 348.309 494.222 345.087 489.209H343.69L340.038 505H327.147V337.852H344.979ZM379.354 400.156C370.832 400.156 364.065 401.839 359.052 405.205C354.039 408.499 350.422 413.512 348.202 420.244C346.054 426.904 344.979 435.355 344.979 445.596V446.562C344.979 461.387 347.45 472.738 352.391 480.615C357.333 488.421 366.32 492.324 379.354 492.324C390.311 492.324 398.511 488.314 403.954 480.293C409.468 472.272 412.225 460.814 412.225 445.918C412.225 430.736 409.504 419.313 404.061 411.65C398.69 403.988 390.455 400.156 379.354 400.156ZM486.286 337.852V379.639C486.286 384.437 486.143 389.092 485.857 393.604C485.642 398.115 485.463 401.624 485.32 404.131H486.286C489.509 398.831 494.164 394.355 500.251 390.703C506.338 387.051 514.109 385.225 523.562 385.225C538.314 385.225 550.059 390.345 558.796 400.586C567.605 410.755 572.009 425.902 572.009 446.025C572.009 459.274 570.004 470.446 565.993 479.541C561.983 488.636 556.325 495.511 549.021 500.166C541.716 504.821 533.086 507.148 523.132 507.148C513.822 507.148 506.159 505.43 500.144 501.992C494.2 498.483 489.616 494.222 486.394 489.209H484.997L481.345 505H468.454V337.852H486.286ZM520.661 400.156C512.139 400.156 505.372 401.839 500.359 405.205C495.346 408.499 491.729 413.512 489.509 420.244C487.361 426.904 486.286 435.355 486.286 445.596V446.562C486.286 461.387 488.757 472.738 493.698 480.615C498.64 488.421 507.627 492.324 520.661 492.324C531.618 492.324 539.818 488.314 545.261 480.293C550.775 472.272 553.532 460.814 553.532 445.918C553.532 430.736 550.811 419.313 545.368 411.65C539.997 403.988 531.762 400.156 520.661 400.156ZM627.701 505H609.761V337.852H627.701V505ZM717.338 385.117C727.364 385.117 735.958 387.337 743.119 391.777C750.281 396.217 755.759 402.448 759.555 410.469C763.35 418.418 765.248 427.728 765.248 438.398V449.463H683.93C684.145 463.285 687.582 473.812 694.242 481.045C700.902 488.278 710.284 491.895 722.387 491.895C729.835 491.895 736.423 491.214 742.152 489.854C747.882 488.493 753.826 486.488 759.984 483.838V499.521C754.04 502.171 748.132 504.105 742.26 505.322C736.459 506.54 729.584 507.148 721.635 507.148C710.32 507.148 700.437 504.857 691.986 500.273C683.607 495.618 677.09 488.815 672.436 479.863C667.781 470.911 665.453 459.954 665.453 446.992C665.453 434.316 667.566 423.359 671.791 414.121C676.088 404.811 682.104 397.65 689.838 392.637C697.644 387.624 706.811 385.117 717.338 385.117ZM717.123 399.727C707.598 399.727 700.007 402.842 694.35 409.072C688.692 415.303 685.326 424.004 684.252 435.176H746.557C746.485 428.158 745.375 421.999 743.227 416.699C741.15 411.328 737.963 407.174 733.666 404.238C729.369 401.23 723.855 399.727 717.123 399.727Z" fill="#666666"/>
<path d="M945.691 444.991C945.908 443.099 944.664 441.477 944.07 440.991C944.61 441.423 945.475 441.91 946.07 442.288C958.773 449.099 973.259 452.774 987.529 454.234C1011.15 456.666 1035.2 450.288 1049.31 430.234C1050.83 428.126 1052.18 425.964 1053.47 423.694L1055.8 430.612C1017.58 413.477 976.069 412.721 946.826 446.234C946.448 446.72 945.151 448.072 944.772 448.504L944.394 448.937V448.991C945.313 448.072 945.908 446.288 945.691 444.991ZM933.691 445.369C933.745 443.585 934.664 441.585 936.016 440.396L936.664 439.693C951.583 422.721 971.583 411.153 994.232 408.775C1016.93 406.234 1039.53 412.288 1059.91 421.585C1062.61 422.721 1063.74 426.018 1062.23 428.504C1046.93 457.369 1017.91 468.072 986.61 465.477C970.556 464.072 954.61 460.234 940.232 452.72C938.934 451.964 937.583 451.153 936.394 450.234C934.935 449.099 933.854 447.099 933.691 445.369Z" fill="#666666"/>
<path d="M955.853 373.099C955.745 372.343 955.312 371.802 954.664 371.694C954.61 371.694 954.664 371.694 954.718 371.694H954.826C956.339 371.856 957.799 372.018 959.258 372.18C1033.04 379.261 1099.2 352.883 1122.61 277.803C1124.07 273.262 1125.31 268.613 1126.45 263.965L1129.69 269.37C1071.96 253.1 1010.34 277.694 975.583 325.694C965.745 339.532 955.907 357.91 957.528 375.153L957.583 375.532V375.748V375.856C957.529 374.775 956.826 373.694 955.853 373.099ZM946.988 382.451C945.907 381.153 945.042 379.261 944.88 377.478L944.826 377.207L944.772 376.667C944.556 374.505 944.502 372.289 944.556 370.126C945.583 351.099 955.042 333.586 966.015 318.667C984.826 293.694 1010.88 274.235 1040.23 263.586C1069.53 252.83 1102.23 252.019 1132.18 260.668C1134.55 261.262 1135.96 263.64 1135.42 266.019C1131.04 285.748 1123.8 305.046 1112.66 321.964C1078.5 374.883 1013.96 390.559 954.448 384.613C951.907 384.451 949.096 383.694 946.988 382.451Z" fill="#666666"/>
<path d="M1002.45 441.045C969.691 447.531 936.123 451.856 902.664 448.126C900.069 447.856 898.177 445.531 898.448 442.883C898.718 440.234 901.15 438.342 903.799 438.666C927.961 441.747 952.609 440.883 976.826 437.477C984.934 436.396 993.042 435.045 1001.2 433.694C1003.26 433.369 1005.15 434.721 1005.47 436.775C1005.8 438.775 1004.45 440.666 1002.45 441.045Z" fill="#666666"/>
<path d="M866.016 380.18C877.097 224.452 1012.72 199.695 1033.69 83.6415C1035.2 74.5605 1035.91 65.2633 1035.96 55.966C1035.96 55.1552 1035.85 54.0742 1035.64 53.4255C1035.2 52.1823 1034.66 51.6417 1033.53 50.3985C1032.34 49.2093 1030.29 46.7769 1029.37 44.7769C1027.37 40.5607 1027.1 35.6958 1028.77 31.2094C1029.8 28.4526 1031.31 26.8311 1032.77 24.777C1032.77 24.777 1032.61 25.0472 1032.56 25.4796C1032.5 25.858 1032.56 26.2905 1032.56 26.4526C1032.66 26.7229 1032.5 26.2904 1032.12 25.7499C1030.93 24.0742 1028.83 22.2365 1027.64 20.2905C1022.93 12.7771 1027.31 5.53387 1035.2 2.99335C1038.93 1.69606 1042.83 1.15555 1046.61 0.723117C1053.74 -0.033635 1060.5 -0.0336614 1067.47 0.0203923C1074.29 0.1285 1081.04 -0.141848 1087.91 0.344636C1096.99 1.04733 1114.39 1.85825 1115.37 13.9663C1115.53 17.75 1113.74 20.777 1111.47 23.3175C1110.61 24.2364 1109.42 25.4797 1108.83 26.3986C1108.45 26.8851 1108.39 27.3175 1108.5 26.831C1108.56 26.6148 1108.56 26.1283 1108.45 25.7499C1108.34 25.3715 1108.23 25.2094 1108.28 25.2635C1109.47 26.831 1111.64 29.5878 1112.45 32.1824C1113.64 35.9661 1113.64 39.2093 1112.56 43.1012C1111.69 46.1282 1109.2 49.2633 1107.31 51.1552C1105.15 53.4795 1105.15 54.4524 1105.15 57.1011C1105.15 59.8038 1105.26 62.5065 1105.37 65.1552C1112.56 205.154 1284.66 217.641 1277.91 415.099C1276.28 462.072 1257.91 507.693 1222.28 539.152C1184.12 573.098 1133.47 590.179 1083.2 594.449C1069.42 595.422 1055.58 595.044 1041.8 593.801C992.178 588.882 938.394 570.882 906.556 530.396C877.151 492.126 883.908 447.477 911.205 410.342C932.881 380.667 962.448 357.586 993.421 338.505C1008.88 329.045 1024.83 320.559 1041.2 312.992C1043.64 311.856 1046.45 312.937 1047.58 315.37C1048.61 317.64 1047.74 320.343 1045.64 321.532C1000.72 347.964 954.124 376.288 922.719 418.613C871.854 489.045 920.611 546.504 992.286 569.152C1021.15 578.233 1051.96 581.855 1082.18 580.017C1137.37 575.314 1194.77 554.125 1230.18 509.909C1257.53 476.126 1266.23 431.153 1263.42 388.505C1261.47 345.045 1246.72 302.613 1220.55 267.857C1170.72 200.452 1095.47 159.749 1091.69 65.966C1091.53 62.3984 1091.42 58.8308 1091.47 55.2633C1091.58 52.0201 1092.61 48.3444 1094.45 45.5336C1095.85 43.2093 1097.74 41.6418 1099.04 40.0202C1099.58 39.2634 1099.69 38.9391 1099.69 37.858C1099.64 36.7229 1099.58 36.7228 1098.88 35.6418C1092.07 27.7499 1094.61 21.1013 1101.31 14.2905C1101.53 14.0743 1101.69 13.8582 1101.8 13.696C1101.91 13.5339 1101.91 13.4797 1101.85 13.6419C1101.8 13.8041 1101.69 14.1825 1101.69 14.7771C1101.74 15.6419 1102.07 16.4528 1102.61 16.9392L1102.5 16.8851C1101.47 16.2905 1100.39 15.9662 1099.1 15.6419C1095.31 14.723 1091.1 14.2906 1087.04 14.0744C1081.74 13.696 1076.12 13.75 1070.72 13.8041C1067.53 13.75 1063.91 13.6959 1060.72 13.75C1056.39 13.804 1052.07 13.9662 1047.96 14.3986C1044.72 14.777 1040.99 15.1554 1038.29 16.6149C1038.23 16.6689 1038.29 16.6149 1038.5 16.3446C1038.72 16.0743 1039.04 15.4797 1039.15 14.8311C1039.26 14.1824 1039.15 13.5879 1039.1 13.3716C1039.04 13.1014 1038.99 13.1013 1039.04 13.2095C1039.1 13.3176 1039.26 13.4798 1039.42 13.696C1042.01 16.5068 1044.61 19.3175 1045.64 23.3175C1045.96 24.5067 1046.07 26.0743 1045.85 27.5878C1045.53 29.9662 1044.29 32.1283 1043.1 33.6418C1042.12 34.9931 1040.99 35.9661 1041.15 37.5877C1041.2 39.3175 1042.02 39.7498 1043.37 41.3174C1045.31 43.3714 1047.64 46.4526 1048.45 49.4796C1049.15 51.8039 1049.37 53.8038 1049.37 56.0741C1049.42 75.3172 1046.56 94.7225 1040.12 113.101C1022.07 165.749 976.502 201.262 940.665 241.208C904.178 280.235 879.908 327.424 875.746 381.099C875.475 383.802 873.097 385.802 870.395 385.532C867.8 385.207 865.8 382.829 866.016 380.18Z" fill="#666666"/>
</svg>
